<svg xmlns="http://www.w3.org/2000/svg" width="32" height="32" viewBox="0 0 32 32" fill="none">
  <path d="M 16.00 2.00 L 17.37 2.35 L 18.68 2.70 L 19.89 3.05 L 20.95 3.40 L 21.82 3.75 L 22.47 4.10 L 22.87 4.45 L 23.00 4.80 L 22.87 5.15 L 22.47 5.50 L 21.82 5.85 L 20.95 6.20 L 19.89 6.55 L 18.68 6.90 L 17.37 7.25 L 16.00 7.60 L 14.63 7.95 L 13.32 8.30 L 12.11 8.65 L 11.05 9.00 L 10.18 9.35 L 9.53 9.70 L 9.13 10.05 L 9.00 10.40 L 9.13 10.75 L 9.53 11.10 L 10.18 11.45 L 11.05 11.80 L 12.11 12.15 L 13.32 12.50 L 14.63 12.85 L 16.00 13.20 L 17.37 13.55 L 18.68 13.90 L 19.89 14.25 L 20.95 14.60 L 21.82 14.95 L 22.47 15.30 L 22.87 15.65 L 23.00 16.00 L 22.87 16.35 L 22.47 16.70 L 21.82 17.05 L 20.95 17.40 L 19.89 17.75 L 18.68 18.10 L 17.37 18.45 L 16.00 18.80 L 14.63 19.15 L 13.32 19.50 L 12.11 19.85 L 11.05 20.20 L 10.18 20.55 L 9.53 20.90 L 9.13 21.25 L 9.00 21.60 L 9.13 21.95 L 9.53 22.30 L 10.18 22.65 L 11.05 23.00 L 12.11 23.35 L 13.32 23.70 L 14.63 24.05 L 16.00 24.40 L 17.37 24.75 L 18.68 25.10 L 19.89 25.45 L 20.95 25.80 L 21.82 26.15 L 22.47 26.50 L 22.87 26.85 L 23.00 27.20 L 22.87 27.55 L 22.47 27.90 L 21.82 28.25 L 20.95 28.60 L 19.89 28.95 L 18.68 29.30 L 17.37 29.65 L 16.00 30.00" stroke="#0e2a1c" stroke-width="1.8" fill="none" stroke-linecap="round"/>
  <path d="M 16.00 2.00 L 14.63 2.35 L 13.32 2.70 L 12.11 3.05 L 11.05 3.40 L 10.18 3.75 L 9.53 4.10 L 9.13 4.45 L 9.00 4.80 L 9.13 5.15 L 9.53 5.50 L 10.18 5.85 L 11.05 6.20 L 12.11 6.55 L 13.32 6.90 L 14.63 7.25 L 16.00 7.60 L 17.37 7.95 L 18.68 8.30 L 19.89 8.65 L 20.95 9.00 L 21.82 9.35 L 22.47 9.70 L 22.87 10.05 L 23.00 10.40 L 22.87 10.75 L 22.47 11.10 L 21.82 11.45 L 20.95 11.80 L 19.89 12.15 L 18.68 12.50 L 17.37 12.85 L 16.00 13.20 L 14.63 13.55 L 13.32 13.90 L 12.11 14.25 L 11.05 14.60 L 10.18 14.95 L 9.53 15.30 L 9.13 15.65 L 9.00 16.00 L 9.13 16.35 L 9.53 16.70 L 10.18 17.05 L 11.05 17.40 L 12.11 17.75 L 13.32 18.10 L 14.63 18.45 L 16.00 18.80 L 17.37 19.15 L 18.68 19.50 L 19.89 19.85 L 20.95 20.20 L 21.82 20.55 L 22.47 20.90 L 22.87 21.25 L 23.00 21.60 L 22.87 21.95 L 22.47 22.30 L 21.82 22.65 L 20.95 23.00 L 19.89 23.35 L 18.68 23.70 L 17.37 24.05 L 16.00 24.40 L 14.63 24.75 L 13.32 25.10 L 12.11 25.45 L 11.05 25.80 L 10.18 26.15 L 9.53 26.50 L 9.13 26.85 L 9.00 27.20 L 9.13 27.55 L 9.53 27.90 L 10.18 28.25 L 11.05 28.60 L 12.11 28.95 L 13.32 29.30 L 14.63 29.65 L 16.00 30.00" stroke="#0e2a1c" stroke-width="1.8" fill="none" stroke-linecap="round"/>
</svg>
