<svg xmlns="http://www.w3.org/2000/svg" width="32" height="32" viewBox="0 0 32 32" fill="none">
  <!-- Curly braces + leaf — lexicons.bio -->
  <path d="M9 1C5 1 2.5 4 2.5 7.5v5c0 1.5-1 2.5-1 3.5 0 1 1 2 1 3.5v5c0 3.5 2.5 6.5 6.5 6.5" stroke="#047857" stroke-width="3" fill="none" stroke-linecap="round"/>
  <path d="M23 1c4 0 6.5 3 6.5 6.5v5c0 1.5 1 2.5 1 3.5 0 1-1 2-1 3.5v5c0 3.5-2.5 6.5-6.5 6.5" stroke="#047857" stroke-width="3" fill="none" stroke-linecap="round"/>
  <path d="M16 3 Q4 16 16 29" fill="#047857"/>
  <path d="M16 3 Q28 16 16 29" fill="#10b981"/>
</svg>
